<svg xmlns="http://www.w3.org/2000/svg" viewBox="0 0 1200 630" width="1200" height="630">
  <defs>
    <linearGradient id="sky" x1="0" y1="0" x2="0" y2="1">
      <stop offset="0%" stop-color="#54b0e6"/>
      <stop offset="60%" stop-color="#2f7fc6"/>
      <stop offset="100%" stop-color="#1b4f97"/>
    </linearGradient>
    <linearGradient id="gold" x1="0" y1="0" x2="0" y2="1">
      <stop offset="0%" stop-color="#ffe9a8"/>
      <stop offset="48%" stop-color="#f4c64a"/>
      <stop offset="100%" stop-color="#cf941d"/>
    </linearGradient>
    <linearGradient id="goldDk" x1="0" y1="0" x2="0" y2="1">
      <stop offset="0%" stop-color="#f0cf78"/>
      <stop offset="100%" stop-color="#b07d1c"/>
    </linearGradient>
    <linearGradient id="horn" x1="0" y1="0" x2="0" y2="1">
      <stop offset="0%" stop-color="#efe0bb"/>
      <stop offset="100%" stop-color="#a9822f"/>
    </linearGradient>
    <radialGradient id="glow" cx="50%" cy="45%" r="55%">
      <stop offset="0%" stop-color="#ffe9a8" stop-opacity="0.55"/>
      <stop offset="100%" stop-color="#ffe9a8" stop-opacity="0"/>
    </radialGradient>
  </defs>

  <rect width="1200" height="630" fill="url(#sky)"/>

  <!-- clouds -->
  <g fill="#ffffff" opacity="0.85">
    <ellipse cx="250" cy="120" rx="70" ry="26"/><ellipse cx="300" cy="108" rx="55" ry="28"/>
    <ellipse cx="950" cy="150" rx="80" ry="28"/><ellipse cx="1010" cy="138" rx="55" ry="26"/>
  </g>

  <!-- city skyline -->
  <g fill="#163e76">
    <rect x="40" y="360" width="95" height="200"/><rect x="150" y="300" width="78" height="260"/>
    <rect x="244" y="380" width="70" height="180"/>
    <rect x="880" y="330" width="80" height="230"/><rect x="978" y="288" width="96" height="272"/>
    <rect x="1090" y="356" width="78" height="204"/>
  </g>
  <g fill="#ffd86b" opacity="0.85">
    <rect x="60" y="380" width="14" height="16"/><rect x="92" y="380" width="14" height="16"/><rect x="60" y="420" width="14" height="16"/><rect x="100" y="430" width="14" height="16"/>
    <rect x="170" y="320" width="14" height="16"/><rect x="200" y="320" width="14" height="16"/><rect x="170" y="360" width="14" height="16"/><rect x="200" y="400" width="14" height="16"/>
    <rect x="1000" y="312" width="14" height="16"/><rect x="1034" y="312" width="14" height="16"/><rect x="1000" y="352" width="14" height="16"/><rect x="1034" y="392" width="14" height="16"/>
  </g>

  <!-- ground + road -->
  <rect x="0" y="500" width="1200" height="130" fill="#5fa247"/>
  <rect x="0" y="522" width="1200" height="58" fill="#54565b"/>
  <g fill="#eceae0"><rect x="80" y="548" width="70" height="7"/><rect x="300" y="548" width="70" height="7"/><rect x="520" y="548" width="70" height="7"/><rect x="740" y="548" width="70" height="7"/><rect x="960" y="548" width="70" height="7"/><rect x="1180" y="548" width="70" height="7"/></g>

  <!-- a little red car on the road -->
  <g transform="translate(880,470)">
    <rect x="0" y="22" width="120" height="34" rx="8" fill="#d23b3b"/>
    <rect x="20" y="2" width="74" height="26" rx="8" fill="#e25555"/>
    <rect x="30" y="6" width="54" height="18" rx="4" fill="#1b2630"/>
    <circle cx="28" cy="58" r="13" fill="#15151a"/><circle cx="92" cy="58" r="13" fill="#15151a"/>
    <circle cx="28" cy="58" r="5" fill="#bfc4c9"/><circle cx="92" cy="58" r="5" fill="#bfc4c9"/>
  </g>

  <!-- big gold goat emblem, centered-left -->
  <ellipse cx="430" cy="300" rx="280" ry="280" fill="url(#glow)"/>
  <g transform="translate(190,46) scale(0.96)">
    <ellipse cx="256" cy="452" rx="150" ry="24" fill="#000" opacity="0.2"/>
    <g stroke="#7a5a16" stroke-width="5" stroke-linejoin="round">
      <path d="M196 182 C150 150 132 104 150 62 C120 96 110 150 132 196 C150 230 178 214 196 182 Z" fill="url(#horn)"/>
      <path d="M316 182 C362 150 380 104 362 62 C392 96 402 150 380 196 C362 230 334 214 316 182 Z" fill="url(#horn)"/>
    </g>
    <g stroke="#7a5a16" stroke-width="5">
      <ellipse cx="158" cy="246" rx="44" ry="24" fill="url(#goldDk)" transform="rotate(-28 158 246)"/>
      <ellipse cx="354" cy="246" rx="44" ry="24" fill="url(#goldDk)" transform="rotate(28 354 246)"/>
    </g>
    <path d="M256 150 C322 150 352 214 346 282 C342 350 304 408 256 408 C208 408 170 350 166 282 C160 214 190 150 256 150 Z" fill="url(#gold)" stroke="#7a5a16" stroke-width="6"/>
    <ellipse cx="256" cy="350" rx="62" ry="48" fill="#fbe4a6" stroke="#7a5a16" stroke-width="5"/>
    <ellipse cx="232" cy="356" rx="9" ry="6" fill="#5b3c12"/><ellipse cx="280" cy="356" rx="9" ry="6" fill="#5b3c12"/>
    <ellipse cx="214" cy="268" rx="20" ry="24" fill="#2b1d08"/><ellipse cx="298" cy="268" rx="20" ry="24" fill="#2b1d08"/>
    <circle cx="221" cy="260" r="6" fill="#fff" opacity="0.9"/><circle cx="305" cy="260" r="6" fill="#fff" opacity="0.9"/>
    <path d="M232 398 C238 446 252 470 256 486 C260 470 274 446 280 398 C272 410 240 410 232 398 Z" fill="url(#goldDk)" stroke="#7a5a16" stroke-width="4"/>
    <path d="M210 175 C195 200 188 235 192 270" fill="none" stroke="#fff7df" stroke-width="7" stroke-linecap="round" opacity="0.5"/>
  </g>

  <!-- sparkles -->
  <g fill="#fff7df">
    <path d="M700 150 l8 22 22 8 -22 8 -8 22 -8 -22 -22 -8 22 -8 z"/>
    <path d="M770 250 l6 16 16 6 -16 6 -6 16 -6 -16 -16 -6 16 -6 z" opacity="0.85"/>
    <path d="M660 330 l5 14 14 5 -14 5 -5 14 -5 -14 -14 -5 14 -5 z" opacity="0.7"/>
  </g>
</svg>
